<mxfile host="app.diagrams.net" agent="Mozilla/5.0 (Windows NT 10.0; Win64; x64) AppleWebKit/537.36 (KHTML, like Gecko) Chrome/135.0.0.0 Safari/537.36" version="26.2.9">
  <diagram name="第 1 页" id="VA22vI0aotHMYMDjGzjL">
    <mxGraphModel dx="1428" dy="751" grid="1" gridSize="10" guides="1" tooltips="1" connect="1" arrows="1" fold="1" page="1" pageScale="1" pageWidth="827" pageHeight="1169" math="0" shadow="0">
      <root>
        <mxCell id="0" />
        <mxCell id="1" parent="0" />
        <mxCell id="2LRjaeHFToD-KepvaApp-1" value="" style="whiteSpace=wrap;html=1;fontSize=14;fontStyle=0" vertex="1" parent="1">
          <mxGeometry x="200" y="130" width="490" height="630" as="geometry" />
        </mxCell>
        <mxCell id="2LRjaeHFToD-KepvaApp-2" value="&lt;font style=&quot;vertical-align: inherit;&quot; class=&quot;notranslate fyzs-translate-target fyzs-translate-target-wrapper&quot;&gt;&lt;font style=&quot;vertical-align: inherit;&quot; class=&quot;notranslate fyzs-translate-target fyzs-translate-target-box&quot;&gt;&lt;font style=&quot;vertical-align: inherit;&quot; title=&quot;Text&quot; class=&quot;notranslate fyzs-translate-target fyzs-translate-target-text&quot;&gt;OSI七层网络模型&lt;/font&gt;&lt;/font&gt;&lt;/font&gt;" style="text;html=1;align=center;verticalAlign=middle;whiteSpace=wrap;rounded=0;fontSize=14;fontStyle=0" vertex="1" parent="1">
          <mxGeometry x="290" y="160" width="100" height="30" as="geometry" />
        </mxCell>
        <mxCell id="2LRjaeHFToD-KepvaApp-3" value="&lt;font style=&quot;vertical-align: inherit;&quot; class=&quot;notranslate fyzs-translate-target fyzs-translate-target-wrapper&quot;&gt;&lt;font style=&quot;vertical-align: inherit;&quot; class=&quot;notranslate fyzs-translate-target fyzs-translate-target-box&quot;&gt;&lt;font style=&quot;vertical-align: inherit;&quot; title=&quot;T&quot; class=&quot;notranslate fyzs-translate-target fyzs-translate-target-text&quot;&gt;TCP/IP四层&lt;/font&gt;&lt;/font&gt;&lt;/font&gt;" style="text;html=1;align=center;verticalAlign=middle;whiteSpace=wrap;rounded=0;fontSize=14;fontStyle=0" vertex="1" parent="1">
          <mxGeometry x="520" y="160" width="80" height="30" as="geometry" />
        </mxCell>
        <mxCell id="2LRjaeHFToD-KepvaApp-4" value="&lt;font style=&quot;vertical-align: inherit;&quot; class=&quot;notranslate fyzs-translate-target fyzs-translate-target-wrapper&quot;&gt;&lt;font style=&quot;vertical-align: inherit;&quot; class=&quot;notranslate fyzs-translate-target fyzs-translate-target-box&quot;&gt;&lt;font style=&quot;vertical-align: inherit;&quot; title=&quot;y&quot; class=&quot;notranslate fyzs-translate-target fyzs-translate-target-text&quot;&gt;应用层&lt;/font&gt;&lt;/font&gt;&lt;/font&gt;&lt;div&gt;&lt;font style=&quot;vertical-align: inherit;&quot; class=&quot;notranslate fyzs-translate-target fyzs-translate-target-wrapper&quot;&gt;&lt;font style=&quot;vertical-align: inherit;&quot; class=&quot;notranslate fyzs-translate-target fyzs-translate-target-box&quot;&gt;&lt;font style=&quot;vertical-align: inherit;&quot; title=&quot;y&quot; class=&quot;notranslate fyzs-translate-target fyzs-translate-target-text&quot;&gt;Application Layer&lt;/font&gt;&lt;/font&gt;&lt;/font&gt;&lt;/div&gt;" style="rounded=0;whiteSpace=wrap;html=1;fillColor=#f8cecc;strokeColor=#b85450;fontSize=14;fontStyle=0" vertex="1" parent="1">
          <mxGeometry x="240" y="210" width="200" height="60" as="geometry" />
        </mxCell>
        <mxCell id="2LRjaeHFToD-KepvaApp-5" value="&lt;font style=&quot;vertical-align: inherit;&quot; class=&quot;notranslate fyzs-translate-target fyzs-translate-target-wrapper&quot;&gt;&lt;font style=&quot;vertical-align: inherit;&quot; class=&quot;notranslate fyzs-translate-target fyzs-translate-target-box&quot;&gt;&lt;font style=&quot;vertical-align: inherit;&quot; title=&quot;b&quot; class=&quot;notranslate fyzs-translate-target fyzs-translate-target-text&quot;&gt;表示层&lt;/font&gt;&lt;/font&gt;&lt;/font&gt;&lt;div&gt;&lt;font style=&quot;vertical-align: inherit;&quot; class=&quot;notranslate fyzs-translate-target fyzs-translate-target-wrapper&quot;&gt;&lt;font style=&quot;vertical-align: inherit;&quot; class=&quot;notranslate fyzs-translate-target fyzs-translate-target-box&quot;&gt;&lt;font style=&quot;vertical-align: inherit;&quot; title=&quot;P&quot; class=&quot;notranslate fyzs-translate-target fyzs-translate-target-text&quot;&gt;Presentation Layer&lt;/font&gt;&lt;/font&gt;&lt;/font&gt;&lt;/div&gt;" style="rounded=0;whiteSpace=wrap;html=1;fillColor=#f8cecc;strokeColor=#b85450;fontSize=14;fontStyle=0" vertex="1" parent="1">
          <mxGeometry x="240" y="280" width="200" height="60" as="geometry" />
        </mxCell>
        <mxCell id="2LRjaeHFToD-KepvaApp-6" value="&lt;font style=&quot;vertical-align: inherit;&quot; class=&quot;notranslate fyzs-translate-target fyzs-translate-target-wrapper&quot;&gt;&lt;font style=&quot;vertical-align: inherit;&quot; class=&quot;notranslate fyzs-translate-target fyzs-translate-target-box&quot;&gt;&lt;font style=&quot;vertical-align: inherit;&quot; title=&quot;h&quot; class=&quot;notranslate fyzs-translate-target fyzs-translate-target-text&quot;&gt;会话层&lt;/font&gt;&lt;/font&gt;&lt;/font&gt;&lt;div&gt;&lt;font style=&quot;vertical-align: inherit;&quot; class=&quot;notranslate fyzs-translate-target fyzs-translate-target-wrapper&quot;&gt;&lt;font style=&quot;vertical-align: inherit;&quot; class=&quot;notranslate fyzs-translate-target fyzs-translate-target-box&quot;&gt;&lt;font style=&quot;vertical-align: inherit;&quot; title=&quot;h&quot; class=&quot;notranslate fyzs-translate-target fyzs-translate-target-text&quot;&gt;Session Layer&lt;/font&gt;&lt;/font&gt;&lt;/font&gt;&lt;/div&gt;" style="rounded=0;whiteSpace=wrap;html=1;fillColor=#f8cecc;strokeColor=#b85450;fontSize=14;fontStyle=0" vertex="1" parent="1">
          <mxGeometry x="240" y="350" width="200" height="60" as="geometry" />
        </mxCell>
        <mxCell id="2LRjaeHFToD-KepvaApp-7" value="&lt;font style=&quot;vertical-align: inherit;&quot; class=&quot;notranslate fyzs-translate-target fyzs-translate-target-wrapper&quot;&gt;&lt;font style=&quot;vertical-align: inherit;&quot; class=&quot;notranslate fyzs-translate-target fyzs-translate-target-box&quot;&gt;&lt;font style=&quot;vertical-align: inherit;&quot; title=&quot;c&quot; class=&quot;notranslate fyzs-translate-target fyzs-translate-target-text&quot;&gt;传输层&lt;/font&gt;&lt;/font&gt;&lt;/font&gt;&lt;div&gt;&lt;font style=&quot;vertical-align: inherit;&quot; class=&quot;notranslate fyzs-translate-target fyzs-translate-target-wrapper&quot;&gt;&lt;font style=&quot;vertical-align: inherit;&quot; class=&quot;notranslate fyzs-translate-target fyzs-translate-target-box&quot;&gt;&lt;font style=&quot;vertical-align: inherit;&quot; title=&quot;c&quot; class=&quot;notranslate fyzs-translate-target fyzs-translate-target-text&quot;&gt;Transport Layer&lt;/font&gt;&lt;/font&gt;&lt;/font&gt;&lt;/div&gt;" style="rounded=0;whiteSpace=wrap;html=1;fillColor=light-dark(#ed7d78, #512d2b);strokeColor=#b85450;fontSize=14;fontStyle=0" vertex="1" parent="1">
          <mxGeometry x="240" y="420" width="200" height="60" as="geometry" />
        </mxCell>
        <mxCell id="2LRjaeHFToD-KepvaApp-8" value="&lt;font style=&quot;vertical-align: inherit;&quot; class=&quot;notranslate fyzs-translate-target fyzs-translate-target-wrapper&quot;&gt;&lt;font style=&quot;vertical-align: inherit;&quot; class=&quot;notranslate fyzs-translate-target fyzs-translate-target-box&quot;&gt;&lt;font style=&quot;vertical-align: inherit;&quot; title=&quot;w&quot; class=&quot;notranslate fyzs-translate-target fyzs-translate-target-text&quot;&gt;网络层&lt;/font&gt;&lt;/font&gt;&lt;/font&gt;&lt;div&gt;&lt;font style=&quot;vertical-align: inherit;&quot; class=&quot;notranslate fyzs-translate-target fyzs-translate-target-wrapper&quot;&gt;&lt;font style=&quot;vertical-align: inherit;&quot; class=&quot;notranslate fyzs-translate-target fyzs-translate-target-box&quot;&gt;&lt;font style=&quot;vertical-align: inherit;&quot; title=&quot;w&quot; class=&quot;notranslate fyzs-translate-target fyzs-translate-target-text&quot;&gt;Network Layer&lt;/font&gt;&lt;/font&gt;&lt;/font&gt;&lt;/div&gt;" style="rounded=0;whiteSpace=wrap;html=1;fillColor=light-dark(#ed7d78, #512d2b);fontSize=14;fontStyle=0" vertex="1" parent="1">
          <mxGeometry x="240" y="490" width="200" height="60" as="geometry" />
        </mxCell>
        <mxCell id="2LRjaeHFToD-KepvaApp-9" value="&lt;font style=&quot;vertical-align: inherit;&quot; class=&quot;notranslate fyzs-translate-target fyzs-translate-target-wrapper&quot;&gt;&lt;font style=&quot;vertical-align: inherit;&quot; class=&quot;notranslate fyzs-translate-target fyzs-translate-target-box&quot;&gt;&lt;font style=&quot;vertical-align: inherit;&quot; title=&quot;s&quot; class=&quot;notranslate fyzs-translate-target fyzs-translate-target-text&quot;&gt;数据链路层&lt;/font&gt;&lt;/font&gt;&lt;/font&gt;&lt;div&gt;&lt;font style=&quot;vertical-align: inherit;&quot; class=&quot;notranslate fyzs-translate-target fyzs-translate-target-wrapper&quot;&gt;&lt;font style=&quot;vertical-align: inherit;&quot; class=&quot;notranslate fyzs-translate-target fyzs-translate-target-box&quot;&gt;&lt;font style=&quot;vertical-align: inherit;&quot; title=&quot;s&quot; class=&quot;notranslate fyzs-translate-target fyzs-translate-target-text&quot;&gt;Data Link Layer&lt;/font&gt;&lt;/font&gt;&lt;/font&gt;&lt;/div&gt;" style="rounded=0;whiteSpace=wrap;html=1;fillColor=#e1d5e7;strokeColor=#9673a6;fontSize=14;fontStyle=0" vertex="1" parent="1">
          <mxGeometry x="240" y="570" width="200" height="60" as="geometry" />
        </mxCell>
        <mxCell id="2LRjaeHFToD-KepvaApp-10" value="&lt;font style=&quot;vertical-align: inherit;&quot; class=&quot;notranslate fyzs-translate-target fyzs-translate-target-wrapper&quot;&gt;&lt;font style=&quot;vertical-align: inherit;&quot; class=&quot;notranslate fyzs-translate-target fyzs-translate-target-box&quot;&gt;&lt;font style=&quot;vertical-align: inherit;&quot; title=&quot;w&quot; class=&quot;notranslate fyzs-translate-target fyzs-translate-target-text&quot;&gt;物理层&lt;/font&gt;&lt;/font&gt;&lt;/font&gt;&lt;div&gt;&lt;font style=&quot;vertical-align: inherit;&quot; class=&quot;notranslate fyzs-translate-target fyzs-translate-target-wrapper&quot;&gt;&lt;font style=&quot;vertical-align: inherit;&quot; class=&quot;notranslate fyzs-translate-target fyzs-translate-target-box&quot;&gt;&lt;font style=&quot;vertical-align: inherit;&quot; title=&quot;w&quot; class=&quot;notranslate fyzs-translate-target fyzs-translate-target-text&quot;&gt;Physical Layer&lt;/font&gt;&lt;/font&gt;&lt;/font&gt;&lt;/div&gt;" style="rounded=0;whiteSpace=wrap;html=1;fillColor=#e1d5e7;strokeColor=#9673a6;fontSize=14;fontStyle=0" vertex="1" parent="1">
          <mxGeometry x="240" y="650" width="200" height="60" as="geometry" />
        </mxCell>
        <mxCell id="2LRjaeHFToD-KepvaApp-11" value="&lt;font style=&quot;vertical-align: inherit;&quot; class=&quot;notranslate fyzs-translate-target fyzs-translate-target-wrapper&quot;&gt;&lt;font style=&quot;vertical-align: inherit;&quot; class=&quot;notranslate fyzs-translate-target fyzs-translate-target-box&quot;&gt;&lt;font style=&quot;vertical-align: inherit;&quot; title=&quot;y&quot; class=&quot;notranslate fyzs-translate-target fyzs-translate-target-text&quot;&gt;应用层&lt;/font&gt;&lt;/font&gt;&lt;/font&gt;&lt;div&gt;&lt;font style=&quot;vertical-align: inherit;&quot; class=&quot;notranslate fyzs-translate-target fyzs-translate-target-wrapper&quot;&gt;&lt;font style=&quot;vertical-align: inherit;&quot; class=&quot;notranslate fyzs-translate-target fyzs-translate-target-box&quot;&gt;&lt;font style=&quot;vertical-align: inherit;&quot; title=&quot;y&quot; class=&quot;notranslate fyzs-translate-target fyzs-translate-target-text&quot;&gt;Application Layer&lt;/font&gt;&lt;/font&gt;&lt;/font&gt;&lt;/div&gt;" style="rounded=0;whiteSpace=wrap;html=1;fillColor=#fad9d5;strokeColor=#ae4132;fontSize=14;fontStyle=0" vertex="1" parent="1">
          <mxGeometry x="470" y="210" width="200" height="200" as="geometry" />
        </mxCell>
        <mxCell id="2LRjaeHFToD-KepvaApp-12" value="&lt;font style=&quot;vertical-align: inherit;&quot; class=&quot;notranslate fyzs-translate-target fyzs-translate-target-wrapper&quot;&gt;&lt;font style=&quot;vertical-align: inherit;&quot; class=&quot;notranslate fyzs-translate-target fyzs-translate-target-box&quot;&gt;&lt;font style=&quot;vertical-align: inherit;&quot; title=&quot;c&quot; class=&quot;notranslate fyzs-translate-target fyzs-translate-target-text&quot;&gt;传输层&lt;/font&gt;&lt;/font&gt;&lt;/font&gt;&lt;div&gt;&lt;font style=&quot;vertical-align: inherit;&quot; class=&quot;notranslate fyzs-translate-target fyzs-translate-target-wrapper&quot;&gt;&lt;font style=&quot;vertical-align: inherit;&quot; class=&quot;notranslate fyzs-translate-target fyzs-translate-target-box&quot;&gt;&lt;font style=&quot;vertical-align: inherit;&quot; title=&quot;c&quot; class=&quot;notranslate fyzs-translate-target fyzs-translate-target-text&quot;&gt;Transport Layer&lt;/font&gt;&lt;/font&gt;&lt;/font&gt;&lt;/div&gt;" style="rounded=0;whiteSpace=wrap;html=1;fillColor=light-dark(#ed7d78, #512d2b);strokeColor=#b85450;fontSize=14;fontStyle=0" vertex="1" parent="1">
          <mxGeometry x="470" y="420" width="200" height="60" as="geometry" />
        </mxCell>
        <mxCell id="2LRjaeHFToD-KepvaApp-13" value="&lt;font style=&quot;vertical-align: inherit;&quot; class=&quot;notranslate fyzs-translate-target fyzs-translate-target-wrapper&quot;&gt;&lt;font style=&quot;vertical-align: inherit;&quot; class=&quot;notranslate fyzs-translate-target fyzs-translate-target-box&quot;&gt;&lt;font style=&quot;vertical-align: inherit;&quot; title=&quot;w&quot; class=&quot;notranslate fyzs-translate-target fyzs-translate-target-text&quot;&gt;网络层&lt;/font&gt;&lt;/font&gt;&lt;/font&gt;&lt;div&gt;&lt;font style=&quot;vertical-align: inherit;&quot; class=&quot;notranslate fyzs-translate-target fyzs-translate-target-wrapper&quot;&gt;&lt;font style=&quot;vertical-align: inherit;&quot; class=&quot;notranslate fyzs-translate-target fyzs-translate-target-box&quot;&gt;&lt;font style=&quot;vertical-align: inherit;&quot; title=&quot;w&quot; class=&quot;notranslate fyzs-translate-target fyzs-translate-target-text&quot;&gt;Network Layer&lt;/font&gt;&lt;/font&gt;&lt;/font&gt;&lt;/div&gt;" style="rounded=0;whiteSpace=wrap;html=1;fillColor=light-dark(#ed7d78, #512d2b);fontSize=14;fontStyle=0" vertex="1" parent="1">
          <mxGeometry x="470" y="490" width="200" height="60" as="geometry" />
        </mxCell>
        <mxCell id="2LRjaeHFToD-KepvaApp-14" value="&lt;font style=&quot;vertical-align: inherit;&quot; class=&quot;notranslate fyzs-translate-target fyzs-translate-target-wrapper&quot;&gt;&lt;font style=&quot;vertical-align: inherit;&quot; class=&quot;notranslate fyzs-translate-target fyzs-translate-target-box&quot;&gt;&lt;font style=&quot;vertical-align: inherit;&quot; title=&quot;w&quot; class=&quot;notranslate fyzs-translate-target fyzs-translate-target-text&quot;&gt;网络接口层&lt;/font&gt;&lt;/font&gt;&lt;/font&gt;&lt;div&gt;&lt;font style=&quot;vertical-align: inherit;&quot; class=&quot;notranslate fyzs-translate-target fyzs-translate-target-wrapper&quot;&gt;&lt;font style=&quot;vertical-align: inherit;&quot; class=&quot;notranslate fyzs-translate-target fyzs-translate-target-box&quot;&gt;&lt;font style=&quot;vertical-align: inherit;&quot; title=&quot;w&quot; class=&quot;notranslate fyzs-translate-target fyzs-translate-target-text&quot;&gt;Network Access&lt;/font&gt;&lt;/font&gt;&lt;/font&gt;&lt;/div&gt;&lt;div&gt;&lt;font style=&quot;vertical-align: inherit;&quot; class=&quot;notranslate fyzs-translate-target fyzs-translate-target-wrapper&quot;&gt;&lt;font style=&quot;vertical-align: inherit;&quot; class=&quot;notranslate fyzs-translate-target fyzs-translate-target-box&quot;&gt;&lt;font style=&quot;vertical-align: inherit;&quot; title=&quot;L&quot; class=&quot;notranslate fyzs-translate-target fyzs-translate-target-text&quot;&gt;Layer&lt;/font&gt;&lt;/font&gt;&lt;/font&gt;&lt;/div&gt;" style="rounded=0;whiteSpace=wrap;html=1;fillColor=#e1d5e7;strokeColor=#9673a6;fontSize=14;fontStyle=0" vertex="1" parent="1">
          <mxGeometry x="470" y="570" width="200" height="140" as="geometry" />
        </mxCell>
      </root>
    </mxGraphModel>
  </diagram>
</mxfile>
